<svg width="22" height="24" viewBox="0 0 22 24" fill="none" xmlns="http://www.w3.org/2000/svg">
<path d="M2.2 20.8691C2.2 21.4214 2.64772 21.8691 3.2 21.8691H7.10783H8.7098H12.5962H14.8922H18.8C19.3523 21.8691 19.8 21.4214 19.8 20.8691V9.59197C19.8 9.27256 19.6474 8.97236 19.3894 8.78411L11.5894 3.09361C11.2382 2.83742 10.7618 2.83742 10.4106 3.09361L2.61063 8.78411C2.35259 8.97236 2.2 9.27256 2.2 9.59197V20.8691ZM1 24C0.447716 24 0 23.5523 0 23V8.52677C0 8.20722 0.152721 7.90691 0.410953 7.71868L10.411 0.429374C10.762 0.173506 11.238 0.173506 11.589 0.429374L21.589 7.71868C21.8473 7.90691 22 8.20722 22 8.52677V23C22 23.5523 21.5523 24 21 24H12.6922H12.0999H10.2667H9.30783H1Z" fill="#FDFDFD"/>
</svg>
