<svg width="24" height="24" viewBox="0 0 24 24" fill="none" xmlns="http://www.w3.org/2000/svg">
<path d="M18.6699 21.2673C18.1729 21.2673 17.7474 21.0903 17.3934 20.7363C17.0393 20.3823 16.8622 19.9567 16.8622 19.4596V18.4268C15.7892 18.2511 14.8959 17.7492 14.1824 16.9211C13.4691 16.0929 13.1124 15.1186 13.1124 13.9981V9.30581C13.1124 8.80865 13.2856 8.38306 13.6319 8.02906C13.9784 7.67506 14.4078 7.49806 14.9199 7.49806H20.3047C20.8017 7.49806 21.2272 7.67506 21.5812 8.02906C21.9352 8.38306 22.1122 8.80865 22.1122 9.30581V13.9981C22.1122 15.1186 21.7555 16.0929 21.0422 16.9211C20.3287 17.7492 19.4354 18.2511 18.3622 18.4268V19.4596C18.3622 19.5492 18.3911 19.623 18.4489 19.6808C18.5066 19.7385 18.5803 19.7673 18.6699 19.7673H21.3622V21.2673H18.6699ZM19.3622 13.2481H20.6122V9.30581C20.6122 9.22248 20.5818 9.15031 20.5209 9.08931C20.4601 9.02848 20.388 8.99806 20.3047 8.99806H14.9199C14.8303 8.99806 14.7566 9.02848 14.6989 9.08931C14.6411 9.15031 14.6122 9.22248 14.6122 9.30581V11.2481H15.3622C15.8674 11.2481 16.3482 11.3635 16.8047 11.5943C17.261 11.825 17.6463 12.1441 17.9604 12.5518C18.1161 12.784 18.3205 12.9581 18.5737 13.0741C18.8269 13.1901 19.0897 13.2481 19.3622 13.2481ZM17.6122 16.9981C18.3072 16.9981 18.9226 16.7849 19.4584 16.3586C19.9943 15.9324 20.3398 15.3956 20.4949 14.7481H19.3622C18.8514 14.7481 18.3676 14.6368 17.9109 14.4143C17.4541 14.192 17.0687 13.8718 16.7547 13.4538C16.5854 13.232 16.3791 13.0589 16.1359 12.9346C15.8926 12.8102 15.6347 12.7481 15.3622 12.7481H14.6122V13.9981C14.6122 14.8481 14.8997 15.5606 15.4747 16.1356C16.0497 16.7106 16.7622 16.9981 17.6122 16.9981ZM8.03544 21.7096L6.53544 20.5846V16.6903H5.49694C4.99977 16.6903 4.57419 16.5133 4.22019 16.1593C3.86619 15.8053 3.68919 15.3797 3.68919 14.8826V7.49806H3.55469C3.34219 7.49806 3.16402 7.42615 3.02019 7.28231C2.87652 7.13848 2.80469 6.96031 2.80469 6.74781C2.80469 6.53515 2.87652 6.35706 3.02019 6.21356C3.16402 6.0699 3.34219 5.99806 3.55469 5.99806H6.53544V4.38281H5.88169C5.66919 4.38281 5.49102 4.3109 5.34719 4.16706C5.20352 4.02323 5.13169 3.84498 5.13169 3.63231C5.13169 3.41981 5.20352 3.24173 5.34719 3.09806C5.49102 2.95456 5.66919 2.88281 5.88169 2.88281H8.68919C8.90169 2.88281 9.07985 2.95473 9.22369 3.09856C9.36735 3.24223 9.43919 3.4204 9.43919 3.63306C9.43919 3.84573 9.36735 4.02381 9.22369 4.16731C9.07985 4.31098 8.90169 4.38281 8.68919 4.38281H8.03544V5.99806H11.0162C11.2287 5.99806 11.4068 6.06998 11.5504 6.21381C11.6943 6.35765 11.7662 6.53581 11.7662 6.74831C11.7662 6.96098 11.6943 7.13906 11.5504 7.28256C11.4068 7.42623 11.2287 7.49806 11.0162 7.49806H10.8814V14.8826C10.8814 15.3797 10.7044 15.8053 10.3504 16.1593C9.99644 16.5133 9.57094 16.6903 9.07394 16.6903H8.03544V21.7096ZM5.49694 15.1903H9.07394C9.1636 15.1903 9.23727 15.1615 9.29494 15.1038C9.35277 15.0461 9.38169 14.9724 9.38169 14.8826V13.4211H7.53544C7.37644 13.4211 7.23735 13.3615 7.11819 13.2423C6.99885 13.1231 6.93919 12.9841 6.93919 12.8251C6.93919 12.6661 6.99885 12.527 7.11819 12.4078C7.23735 12.2885 7.37644 12.2288 7.53544 12.2288H9.38169V10.4596H7.53544C7.37644 10.4596 7.23735 10.4 7.11819 10.2808C6.99885 10.1615 6.93919 10.0224 6.93919 9.86356C6.93919 9.70456 6.99885 9.5654 7.11819 9.44606C7.23735 9.3269 7.37644 9.26731 7.53544 9.26731H9.38169V7.49806H5.18919V14.8826C5.18919 14.9724 5.21802 15.0461 5.27569 15.1038C5.33352 15.1615 5.40727 15.1903 5.49694 15.1903Z" fill="#F6C1B7"/>
</svg>
