<svg width="20" height="20" viewBox="0 0 20 20" fill="#f1f1f1" xmlns="http://www.w3.org/2000/svg">
<path d="M10 18C8.125 17.5417 6.57292 16.4803 5.34375 14.8158C4.11458 13.1513 3.5 11.3029 3.5 9.27083V4.5L10 2L16.5 4.5V9.27083C16.5 11.3029 15.8854 13.1513 14.6563 14.8158C13.4271 16.4803 11.875 17.5417 10 18ZM10 16.4375C11.4444 15.9896 12.6389 15.0938 13.5833 13.75C14.5278 12.4063 15 10.9132 15 9.27083V5.52083L10 3.60417L5 5.52083V9.27083C5 10.9132 5.47222 12.4063 6.41667 13.75C7.36111 15.0938 8.55556 15.9896 10 16.4375ZM8 12.5H12C12.1417 12.5 12.2604 12.4521 12.3562 12.3563C12.4521 12.2604 12.5 12.1417 12.5 12V9C12.5 8.85833 12.4521 8.73958 12.3562 8.64375C12.2604 8.54792 12.1417 8.5 12 8.5H11.5V8C11.5 7.5875 11.3527 7.23438 11.0581 6.94063C10.7635 6.64688 10.4094 6.5 9.99563 6.5C9.58188 6.5 9.22917 6.64688 8.9375 6.94063C8.64583 7.23438 8.5 7.5875 8.5 8V8.5H8C7.85833 8.5 7.73958 8.54792 7.64375 8.64375C7.54792 8.73958 7.5 8.85833 7.5 9V12C7.5 12.1417 7.54792 12.2604 7.64375 12.3563C7.73958 12.4521 7.85833 12.5 8 12.5ZM9.25 8.5V8C9.25 7.7875 9.32146 7.60937 9.46438 7.46562C9.60729 7.32187 9.78438 7.25 9.99563 7.25C10.2069 7.25 10.3854 7.32187 10.5313 7.46562C10.6771 7.60937 10.75 7.7875 10.75 8V8.5H9.25Z" />
</svg>
