<svg width="19" height="19" viewBox="0 0 19 19" fill="none" xmlns="http://www.w3.org/2000/svg">
<path d="M1 19C0.447716 19 0 18.5523 0 18V14.4615C0 13.9092 0.447715 13.4615 1 13.4615H4.5385C5.09078 13.4615 5.5385 13.9092 5.5385 14.4615V18C5.5385 18.5523 5.09079 19 4.5385 19H1ZM7.73075 19C7.17847 19 6.73075 18.5523 6.73075 18V14.4615C6.73075 13.9092 7.17847 13.4615 7.73075 13.4615H11.2693C11.8215 13.4615 12.2693 13.9092 12.2693 14.4615V18C12.2693 18.5523 11.8215 19 11.2693 19H7.73075ZM14.4615 19C13.9092 19 13.4615 18.5523 13.4615 18V14.4615C13.4615 13.9092 13.9092 13.4615 14.4615 13.4615H18C18.5523 13.4615 19 13.9092 19 14.4615V18C19 18.5523 18.5523 19 18 19H14.4615ZM1 12.2692C0.447716 12.2692 0 11.8215 0 11.2692V7.73075C0 7.17847 0.447715 6.73075 1 6.73075H4.5385C5.09078 6.73075 5.5385 7.17846 5.5385 7.73075V11.2692C5.5385 11.8215 5.09079 12.2692 4.5385 12.2692H1ZM7.73075 12.2692C7.17847 12.2692 6.73075 11.8215 6.73075 11.2692V7.73075C6.73075 7.17847 7.17847 6.73075 7.73075 6.73075H11.2693C11.8215 6.73075 12.2693 7.17846 12.2693 7.73075V11.2692C12.2693 11.8215 11.8215 12.2692 11.2693 12.2692H7.73075ZM14.4615 12.2692C13.9092 12.2692 13.4615 11.8215 13.4615 11.2692V7.73075C13.4615 7.17847 13.9092 6.73075 14.4615 6.73075H18C18.5523 6.73075 19 7.17846 19 7.73075V11.2692C19 11.8215 18.5523 12.2692 18 12.2692H14.4615ZM1 5.5385C0.447716 5.5385 0 5.09078 0 4.5385V1C0 0.447716 0.447715 0 1 0H4.5385C5.09078 0 5.5385 0.447715 5.5385 1V4.5385C5.5385 5.09078 5.09079 5.5385 4.5385 5.5385H1ZM7.73075 5.5385C7.17847 5.5385 6.73075 5.09078 6.73075 4.5385V1C6.73075 0.447716 7.17847 0 7.73075 0H11.2693C11.8215 0 12.2693 0.447715 12.2693 1V4.5385C12.2693 5.09078 11.8215 5.5385 11.2693 5.5385H7.73075ZM14.4615 5.5385C13.9092 5.5385 13.4615 5.09078 13.4615 4.5385V1C13.4615 0.447716 13.9092 0 14.4615 0H18C18.5523 0 19 0.447715 19 1V4.5385C19 5.09078 18.5523 5.5385 18 5.5385H14.4615ZM1.5 16.5C1.5 17.0523 1.94772 17.5 2.5 17.5H3.0385C3.59078 17.5 4.0385 17.0523 4.0385 16.5V15.9615C4.0385 15.4092 3.59078 14.9615 3.0385 14.9615H2.5C1.94772 14.9615 1.5 15.4092 1.5 15.9615V16.5ZM8.23075 16.5C8.23075 17.0523 8.67847 17.5 9.23075 17.5H9.76925C10.3215 17.5 10.7693 17.0523 10.7693 16.5V15.9615C10.7693 15.4092 10.3215 14.9615 9.76925 14.9615H9.23075C8.67847 14.9615 8.23075 15.4092 8.23075 15.9615V16.5ZM14.9615 16.5C14.9615 17.0523 15.4092 17.5 15.9615 17.5H16.5C17.0523 17.5 17.5 17.0523 17.5 16.5V15.9615C17.5 15.4092 17.0523 14.9615 16.5 14.9615H15.9615C15.4092 14.9615 14.9615 15.4092 14.9615 15.9615V16.5ZM1.5 9.76925C1.5 10.3215 1.94772 10.7692 2.5 10.7692H3.0385C3.59078 10.7692 4.0385 10.3215 4.0385 9.76925V9.23075C4.0385 8.67846 3.59078 8.23075 3.0385 8.23075H2.5C1.94772 8.23075 1.5 8.67846 1.5 9.23075V9.76925ZM8.23075 9.76925C8.23075 10.3215 8.67847 10.7692 9.23075 10.7692H9.76925C10.3215 10.7692 10.7693 10.3215 10.7693 9.76925V9.23075C10.7693 8.67846 10.3215 8.23075 9.76925 8.23075H9.23075C8.67847 8.23075 8.23075 8.67846 8.23075 9.23075V9.76925ZM14.9615 9.76925C14.9615 10.3215 15.4092 10.7692 15.9615 10.7692H16.5C17.0523 10.7692 17.5 10.3215 17.5 9.76925V9.23075C17.5 8.67846 17.0523 8.23075 16.5 8.23075H15.9615C15.4092 8.23075 14.9615 8.67846 14.9615 9.23075V9.76925ZM8.23075 3.0385C8.23075 3.59078 8.67847 4.0385 9.23075 4.0385H9.76925C10.3215 4.0385 10.7693 3.59078 10.7693 3.0385V2.5C10.7693 1.94772 10.3215 1.5 9.76925 1.5H9.23075C8.67847 1.5 8.23075 1.94772 8.23075 2.5V3.0385ZM14.9615 3.0385C14.9615 3.59078 15.4092 4.0385 15.9615 4.0385H16.5C17.0523 4.0385 17.5 3.59078 17.5 3.0385V2.5C17.5 1.94772 17.0523 1.5 16.5 1.5H15.9615C15.4092 1.5 14.9615 1.94772 14.9615 2.5V3.0385Z" fill="#FDFDFD"/>
</svg>
