<svg width="24" height="24" viewBox="0 0 24 24" fill="none" xmlns="http://www.w3.org/2000/svg">
<path d="M13.4795 21.5C11.815 21.5 10.3971 20.9163 9.22575 19.749C8.05442 18.5817 7.46875 17.1653 7.46875 15.5V14.9538C6.11875 14.7783 4.98958 14.1763 4.08125 13.148C3.17292 12.1198 2.71875 10.9038 2.71875 9.5V3.75H5.71875V2.75H7.21875V6.25H5.71875V5.25H4.21875V9.5C4.21875 10.6 4.61042 11.5417 5.39375 12.325C6.17708 13.1083 7.11875 13.5 8.21875 13.5C9.31875 13.5 10.2604 13.1083 11.0438 12.325C11.8271 11.5417 12.2188 10.6 12.2188 9.5V5.25H10.7188V6.25H9.21875V2.75H10.7188V3.75H13.7188V9.5C13.7188 10.9038 13.2646 12.1198 12.3563 13.148C11.4479 14.1763 10.3188 14.7783 8.96875 14.9538V15.5C8.96875 16.75 9.40717 17.8125 10.284 18.6875C11.1608 19.5625 12.2256 20 13.4783 20C14.7283 20 15.7908 19.5625 16.6658 18.6875C17.5408 17.8125 17.9783 16.75 17.9783 15.5V13.8828C17.4526 13.7276 17.0199 13.4253 16.6803 12.976C16.3404 12.5267 16.1705 12.0154 16.1705 11.4423C16.1705 10.7319 16.4193 10.1281 16.917 9.63075C17.4145 9.13342 18.0187 8.88475 18.7295 8.88475C19.4402 8.88475 20.0439 9.13342 20.5408 9.63075C21.0376 10.1281 21.286 10.7319 21.286 11.4423C21.286 12.0154 21.1161 12.5267 20.7763 12.976C20.4366 13.4253 20.0039 13.7276 19.4783 13.8828V15.5C19.4783 17.1653 18.8946 18.5817 17.7273 19.749C16.5599 20.9163 15.144 21.5 13.4795 21.5ZM18.7283 12.5C19.0244 12.5 19.2748 12.3978 19.4793 12.1933C19.6838 11.9888 19.786 11.7384 19.786 11.4423C19.786 11.1461 19.6838 10.8958 19.4793 10.6915C19.2748 10.487 19.0244 10.3848 18.7283 10.3848C18.4321 10.3848 18.1818 10.487 17.9773 10.6915C17.7728 10.8958 17.6705 11.1461 17.6705 11.4423C17.6705 11.7384 17.7728 11.9888 17.9773 12.1933C18.1818 12.3978 18.4321 12.5 18.7283 12.5Z" fill="#F6C1B7"/>
</svg>
