<svg width="58" height="40" viewBox="0 0 58 40" fill="none" xmlns="http://www.w3.org/2000/svg">
<path d="M56.0748 6.24719C55.7512 5.03909 55.1131 3.93645 54.2244 3.04971C53.3357 2.16296 52.2275 1.52322 51.0109 1.19456C46.546 2.81985e-07 28.6364 0 28.6364 0C28.6364 0 10.7267 2.81985e-07 6.25943 1.19456C5.04336 1.5238 3.93582 2.16377 3.04757 3.05046C2.15933 3.93715 1.52152 5.03948 1.19795 6.24719C0 10.7037 0 20 0 20C0 20 0 29.2963 1.19795 33.7528C1.52151 34.9609 2.1596 36.0635 3.04832 36.9503C3.93704 37.837 5.0452 38.4768 6.26182 38.8054C10.7267 40 28.6364 40 28.6364 40C28.6364 40 46.546 40 51.0133 38.8054C52.23 38.477 53.3383 37.8373 54.2271 36.9506C55.1158 36.0638 55.7538 34.961 56.0772 33.7528C57.2727 29.2963 57.2727 20 57.2727 20C57.2727 20 57.2727 10.7037 56.0748 6.24719ZM22.7778 28.44V11.56L37.7475 20L22.7778 28.44Z" fill="#FDFDFD"/>
</svg>
