<svg width="62" height="40" viewBox="0 0 62 40" fill="none" xmlns="http://www.w3.org/2000/svg">
<path fill-rule="evenodd" clip-rule="evenodd" d="M21.0854 13.2092V26.788C21.0854 30.1682 24.6729 32.3417 27.6689 30.7767L40.6668 23.9873C43.8888 22.3042 43.8888 17.693 40.6668 16.01L27.6689 9.22058C24.6729 7.6556 21.0854 9.82907 21.0854 13.2092ZM24.5854 26.788C24.5854 27.5392 25.3827 28.0222 26.0484 27.6744L39.0463 20.885C39.7623 20.511 39.7623 19.4863 39.0463 19.1123L26.0484 12.3228C25.3827 11.9751 24.5854 12.4581 24.5854 13.2092V26.788Z" fill="#FDFDFD"/>
<path fill-rule="evenodd" clip-rule="evenodd" d="M55.0594 1.19456C50.2402 0 30.9091 0 30.9091 0C30.9091 0 11.578 0 6.75621 1.19456C5.44363 1.5238 4.24818 2.16377 3.28944 3.05046C2.3307 3.93715 1.64228 5.03948 1.29303 6.24719C0 10.7037 0 20 0 20C0 20 0 29.2963 1.29303 33.7528C1.64227 34.9609 2.331 36.0635 3.29025 36.9503C4.2495 37.837 5.44561 38.4768 6.75879 38.8054C11.578 40 30.9091 40 30.9091 40C30.9091 40 50.2402 40 55.062 38.8054C56.3753 38.477 57.5715 37.8373 58.5308 36.9506C59.4901 36.0638 60.1787 34.961 60.5277 33.7528C61.8182 29.2963 61.8182 20 61.8182 20C61.8182 20 61.8182 10.7037 60.5251 6.24719C60.1759 5.03909 59.4872 3.93645 58.5279 3.04971C57.5687 2.16296 56.3726 1.52322 55.0594 1.19456ZM57.1628 7.21917L57.1638 7.22247C57.6868 9.02499 57.9998 12.0982 58.162 14.9908C58.24 16.3812 58.2792 17.6407 58.2988 18.5529C58.3086 19.0082 58.3134 19.3748 58.3158 19.6255C58.317 19.7507 58.3176 19.8469 58.3179 19.9105L58.3181 19.981L58.3182 19.9995V20.0005L58.3181 20.019L58.3179 20.0896C58.3176 20.1532 58.317 20.2493 58.3158 20.3746C58.3134 20.6253 58.3086 20.9919 58.2988 21.4472C58.2793 22.3595 58.2402 23.6191 58.1623 25.0096C58.0004 27.9022 57.688 30.9761 57.1658 32.7793L57.1652 32.7815C57.0003 33.3524 56.6648 33.9091 56.1549 34.3805C55.6439 34.8529 54.9795 35.2177 54.2162 35.4092C53.3488 35.6233 51.5306 35.8345 49.0183 36.004C46.5941 36.1675 43.7776 36.2779 41.0812 36.352C38.3901 36.4259 35.8446 36.463 33.9703 36.4815C33.0338 36.4908 32.2664 36.4954 31.734 36.4977C31.4678 36.4989 31.2605 36.4994 31.1202 36.4997H30.698C30.5577 36.4994 30.3504 36.4989 30.0842 36.4977C29.5518 36.4954 28.7844 36.4908 27.8479 36.4815C25.9736 36.463 23.4282 36.4259 20.7373 36.352C18.0411 36.2779 15.2249 36.1675 12.801 36.004C10.2881 35.8345 8.47035 35.6232 7.60417 35.4091C6.84124 35.2174 6.17702 34.8525 5.66609 34.3802C5.1561 33.9088 4.82044 33.3519 4.65536 32.7808L4.6544 32.7775C4.13142 30.975 3.81841 27.9018 3.65613 25.0092C3.57814 23.6188 3.53898 22.3593 3.5194 21.4471C3.50962 20.9918 3.50477 20.6252 3.50236 20.3745C3.50116 20.2493 3.50057 20.1531 3.50028 20.0895L3.50003 20.019L3.5 20.0005V19.9995L3.50003 19.981L3.50028 19.9105C3.50057 19.8469 3.50116 19.7507 3.50236 19.6255C3.50477 19.3748 3.50962 19.0082 3.5194 18.5529C3.53898 17.6407 3.57814 16.3812 3.65613 14.9908C3.81841 12.0982 4.13142 9.02499 4.65441 7.22247L4.65527 7.21949C4.82042 6.6484 5.15604 6.09152 5.66588 5.62C6.17654 5.14771 6.84035 4.78273 7.60286 4.59062C8.4706 4.37656 10.2884 4.16543 12.7999 3.99602C15.2241 3.83249 18.0406 3.72207 20.7369 3.648C23.4281 3.57407 25.9735 3.53703 27.8479 3.51849C28.7844 3.50923 29.5518 3.50461 30.0842 3.5023C30.3504 3.50115 30.5577 3.50057 30.698 3.50028L30.9095 3.5L31.1202 3.50028C31.2605 3.50057 31.4678 3.50115 31.734 3.5023C32.2663 3.50461 33.0338 3.50923 33.9703 3.51849C35.8446 3.53703 38.3899 3.57407 41.0809 3.648C43.7771 3.72207 46.5933 3.83249 49.0172 3.99602C51.5296 4.16551 53.3472 4.37676 54.2136 4.59082C54.9767 4.78249 55.6411 5.1474 56.1521 5.6198C56.6621 6.09124 56.9977 6.6481 57.1628 7.21917Z" fill="#FDFDFD"/>
</svg>
