<svg width="40" height="40" viewBox="0 0 40 40" fill="none" xmlns="http://www.w3.org/2000/svg">
<path d="M20 0C16.0444 0 12.1776 1.17298 8.8886 3.37061C5.59962 5.56824 3.03617 8.69181 1.52242 12.3463C0.00866583 16.0009 -0.387401 20.0222 0.384303 23.9018C1.15601 27.7814 3.06082 31.3451 5.85787 34.1421C8.65492 36.9392 12.2186 38.844 16.0982 39.6157C19.9778 40.3874 23.9992 39.9913 27.6537 38.4776C31.3082 36.9638 34.4318 34.4004 36.6294 31.1114C38.827 27.8224 40 23.9556 40 20C39.9944 14.6974 37.8855 9.61356 34.136 5.86405C30.3864 2.11453 25.3026 0.00559965 20 0ZM20 36.9231C16.6529 36.9231 13.381 35.9306 10.598 34.071C7.81506 32.2115 5.64599 29.5685 4.36512 26.4762C3.08426 23.3839 2.74912 19.9812 3.4021 16.6985C4.05508 13.4157 5.66685 10.4003 8.03358 8.03358C10.4003 5.66684 13.4157 4.05508 16.6985 3.40209C19.9812 2.74911 23.3839 3.08425 26.4762 4.36511C29.5685 5.64598 32.2115 7.81506 34.071 10.598C35.9306 13.381 36.9231 16.6529 36.9231 20C36.918 24.4867 35.1334 28.7882 31.9608 31.9608C28.7882 35.1334 24.4867 36.918 20 36.9231ZM25.975 28.0269C25.7842 28.3874 25.458 28.6574 25.0682 28.7775C24.6783 28.8976 24.2568 28.858 23.8962 28.6673C22.6984 28.0235 21.3598 27.6865 20 27.6865C18.6402 27.6865 17.3016 28.0235 16.1039 28.6673C15.7442 28.8481 15.3281 28.8808 14.9447 28.7583C14.5613 28.6358 14.2411 28.3679 14.0529 28.0122C13.8647 27.6564 13.8234 27.241 13.9379 26.8551C14.0524 26.4693 14.3136 26.1436 14.6654 25.9481C16.3091 25.0786 18.1405 24.6242 20 24.6242C21.8595 24.6242 23.6909 25.0786 25.3346 25.9481C25.6951 26.1389 25.9651 26.4651 26.0852 26.8549C26.2053 27.2447 26.1657 27.6663 25.975 28.0269ZM32.1289 17.2577C32.0337 17.436 31.9044 17.5939 31.7482 17.7222C31.592 17.8506 31.412 17.9469 31.2186 18.0056C31.0252 18.0644 30.8221 18.0845 30.6209 18.0647C30.4197 18.0449 30.2244 17.9857 30.0462 17.8904C26.9568 16.2357 23.5065 15.3698 20.0019 15.3698C16.4973 15.3698 13.047 16.2357 9.9577 17.8904C9.59762 18.0827 9.1759 18.124 8.78532 18.0054C8.39474 17.8867 8.06729 17.6178 7.87501 17.2577C7.68272 16.8976 7.64136 16.4759 7.76001 16.0853C7.87867 15.6947 8.14762 15.3673 8.5077 15.175C12.0434 13.2827 15.9917 12.2927 20.0019 12.2927C24.0122 12.2927 27.9604 13.2827 31.4962 15.175C31.6749 15.2703 31.833 15.3999 31.9614 15.5565C32.0899 15.713 32.1862 15.8934 32.2448 16.0873C32.3034 16.2811 32.3232 16.4847 32.3029 16.6862C32.2827 16.8877 32.2229 17.0832 32.1269 17.2615L32.1289 17.2577ZM29.0519 22.6423C28.8601 23.0023 28.5331 23.2715 28.1429 23.3905C27.7527 23.5095 27.3313 23.4686 26.9712 23.2769C24.8263 22.1328 22.4328 21.5344 20.0019 21.5344C17.571 21.5344 15.1775 22.1328 13.0327 23.2769C12.6734 23.4604 12.2564 23.4955 11.8715 23.3745C11.4866 23.2535 11.1647 22.9861 10.975 22.63C10.7854 22.2739 10.7432 21.8576 10.8576 21.4707C10.9719 21.0838 11.2337 20.7573 11.5865 20.5615C14.1765 19.1804 17.0667 18.4579 20.0019 18.4579C22.9372 18.4579 25.8273 19.1804 28.4173 20.5615C28.5959 20.6567 28.754 20.7861 28.8825 20.9424C29.011 21.0988 29.1074 21.2789 29.1662 21.4726C29.225 21.6662 29.2449 21.8696 29.225 22.0709C29.2051 22.2723 29.1456 22.4678 29.05 22.6461L29.0519 22.6423Z" fill="#FDFDFD"/>
</svg>
