<svg width="162" height="40" viewBox="0 0 162 40" fill="none" xmlns="http://www.w3.org/2000/svg">
<path d="M78.8383 13.2093V24.9302C78.8383 27.6279 78.2487 29.6279 77.0697 30.8558C76.3844 31.5035 75.5718 32.0032 74.6828 32.3234C73.7938 32.6436 72.8477 32.7774 71.9041 32.7163C67.2252 32.7163 64.97 30.2512 64.97 24.9581V12.8651C64.9725 12.2071 64.8444 11.5551 64.593 10.9464C64.3417 10.3376 63.9721 9.78414 63.5054 9.31756C63.0386 8.85098 62.4839 8.48049 61.8729 8.22727C61.262 7.97405 60.6068 7.84309 59.9448 7.84187H55.9678V25.1907C55.9678 29.907 57.3902 33.5628 60.1881 36.1581C62.9861 38.7535 66.8977 40 71.8574 40C76.817 40 80.7473 38.707 83.5265 36.1581C86.3058 33.6093 87.7563 29.907 87.7563 25.1907V7.84187H84.2752C83.5633 7.8382 82.8577 7.97425 82.1989 8.24223C81.54 8.51021 80.9408 8.90484 80.4357 9.4035C79.9306 9.90216 79.5295 10.495 79.2554 11.1481C78.9812 11.8012 78.8395 12.5017 78.8383 13.2093Z" fill="#EC5A3D"/>
<path d="M150.647 31.2192L150.656 31.2108L150.664 31.2021C151.974 29.8384 152.572 27.6822 152.572 24.9302V13.2102C152.574 11.9207 153.091 10.684 154.009 9.77126C154.927 8.85853 156.172 8.3442 157.472 8.34186H160.509V25.1907C160.509 29.8003 159.086 33.356 156.432 35.7896C153.771 38.2301 149.985 39.5 145.101 39.5C140.213 39.5 136.43 38.2747 133.753 35.7915C131.079 33.3111 129.692 29.8008 129.692 25.1907V8.36046H133.169C134.373 8.36046 135.527 8.83578 136.377 9.68089C137.227 10.5259 137.704 11.6714 137.704 12.8651V24.9581C137.704 27.6631 138.278 29.7477 139.545 31.1563C140.818 32.5729 142.706 33.2134 145.122 33.2163C146.129 33.2792 147.138 33.1355 148.086 32.7938C149.04 32.4504 149.912 31.9143 150.647 31.2192Z" fill="#EC5A3D" />
<path d="M75.0065 0.765074L75.0065 0.765174L75.0161 0.769161C75.6346 1.02443 76.1754 1.43503 76.5856 1.96034C76.9957 2.48564 77.2612 3.10764 77.3563 3.76525C77.4514 4.42286 77.3729 5.0938 77.1284 5.7123C76.8844 6.32947 76.4833 6.8735 75.9641 7.29102C75.6807 7.50966 75.3319 7.62914 74.9723 7.63023H69.6151L74.6744 0.619794L75.0065 0.765074Z" fill="#EC5A3D"/>
<path d="M118.377 29.7571L124.964 39.1372H119.076C118.377 39.1371 117.687 38.9685 117.068 38.6461C116.448 38.3236 115.917 37.8569 115.519 37.2861C115.519 37.2861 115.519 37.2861 115.519 37.286L111.083 30.9233L110.934 30.7093H110.673H101.68H101.18V31.2093V34.986C101.18 36.086 100.74 37.1416 99.9571 37.9203C99.1736 38.6991 98.1104 39.1372 97.0011 39.1372H93.627V8.39766H110.692V8.39779L110.703 8.39754C113.147 8.34285 115.574 8.80814 117.822 9.76211C119.73 10.5832 121.356 11.937 122.503 13.6586C123.631 15.4364 124.205 17.5056 124.154 19.6063L124.153 19.6187L124.154 19.6311C124.206 21.7317 123.622 23.7996 122.477 25.5662C121.49 27.032 120.142 28.2224 118.56 29.0237L118.045 29.2846L118.377 29.7571ZM114.938 23.3573L114.96 23.3421L114.98 23.3247C115.508 22.8612 115.923 22.2834 116.193 21.6354C116.458 20.9979 116.575 20.3094 116.536 19.6208C116.581 18.929 116.467 18.2358 116.201 17.5947C115.931 16.943 115.512 16.3631 114.977 15.9009L114.957 15.8836L114.935 15.8685C113.577 14.9242 111.933 14.4726 110.281 14.5884H101.652H101.152V15.0884V24.1581V24.6581H101.652H110.281C111.937 24.7732 113.583 24.3137 114.938 23.3573Z" fill="#EC5A3D" />
<path d="M43.0698 11.0128L43.0699 11.0128L43.072 11.0061C43.3165 10.23 43.8038 9.55113 44.4636 9.06845C45.1234 8.58582 45.9212 8.32462 46.741 8.32324H51.1966L42.0546 36.1228L42.0532 36.1273C41.7422 37.1034 41.1269 37.9564 40.2957 38.5629C39.4646 39.1692 38.4609 39.4975 37.4293 39.5C37.429 39.5 37.4288 39.5 37.4285 39.5L36.7939 39.5C35.6814 39.4985 34.5971 39.1536 33.6908 38.5133C32.7846 37.8732 32.1012 36.9694 31.7345 35.9273C31.7345 35.9272 31.7345 35.9271 31.7344 35.9271L27.224 23.0901L26.7768 21.8172L26.2865 23.0741L21.1123 36.3375C21.1122 36.3376 21.1122 36.3378 21.1121 36.338C20.7465 37.2647 20.1094 38.0617 19.2829 38.6256C18.4565 39.1893 17.4787 39.494 16.4759 39.5H16.0189H16.0179C14.8407 39.5022 13.6932 39.134 12.7399 38.4486C11.7866 37.7631 11.0765 36.7958 10.7106 35.6854L10.7105 35.6849L1.6821 8.36975L6.04346 8.36975L6.04444 8.36975C7.05399 8.36777 8.03755 8.68601 8.85206 9.27776C9.66653 9.86948 10.2694 10.7037 10.5735 11.6587L10.5741 11.6606L15.9268 28.2373L16.366 29.5977L16.8704 28.2601L22.3904 13.6212C22.3906 13.6207 22.3908 13.6202 22.391 13.6197C22.7276 12.745 23.3257 11.9931 24.1055 11.4656C24.8858 10.9377 25.8104 10.66 26.7547 10.67C27.6991 10.6801 28.6175 10.9775 29.3861 11.5219C30.1548 12.0662 30.7368 12.8311 31.0543 13.7135L31.0547 13.7146L36.3793 28.4029L36.8711 29.7596L37.3241 28.3895L43.0698 11.0128Z" fill="#EC5A3D"/>
</svg>
