<svg width="109" height="27" viewBox="0 0 109 27" fill="none" xmlns="http://www.w3.org/2000/svg">
<path d="M51.7091 3.97989C51.5225 4.45206 51.2155 4.86787 50.8183 5.18651C50.5674 5.38104 50.2586 5.48707 49.9403 5.48791H45.6641L49.6245 0L50.0983 0.207209C50.5696 0.40174 50.982 0.714754 51.2949 1.11553C51.6078 1.51631 51.8105 1.99108 51.8832 2.49324C51.9558 2.99541 51.8958 3.50772 51.7091 3.97989Z" fill="#EC5A3D"/>
<path d="M52.547 8.91995V16.8316C52.547 18.6525 52.149 20.0025 51.3531 20.8313C50.8906 21.2686 50.3421 21.6058 49.742 21.822C49.1419 22.0381 48.5033 22.1284 47.8664 22.0872C44.7082 22.0872 43.1859 20.4232 43.1859 16.8504V8.68762C43.1875 8.24347 43.1011 7.80335 42.9314 7.39246C42.7618 6.98156 42.5123 6.60795 42.1972 6.29302C41.8822 5.97808 41.5078 5.72799 41.0954 5.55707C40.683 5.38615 40.2407 5.29775 39.7939 5.29692H37.1094V17.0074C37.1094 20.1909 38.0695 22.6586 39.9581 24.4104C41.8468 26.1623 44.4871 27.0037 47.8348 27.0037C51.1826 27.0037 53.8355 26.1309 55.7116 24.4104C57.5876 22.6899 58.5666 20.1909 58.5666 17.0074V5.29692H56.2169C55.7364 5.29444 55.2601 5.38628 54.8154 5.56717C54.3706 5.74805 53.9662 6.01443 53.6252 6.35102C53.2843 6.68762 53.0135 7.08781 52.8285 7.52864C52.6435 7.96947 52.5478 8.44228 52.547 8.91995Z" fill="#EC5A3D"/>
<path d="M105.628 5.29688C104.662 5.29854 103.735 5.68078 103.052 6.35987C102.369 7.03896 101.985 7.95952 101.983 8.9199V16.8315C101.983 18.6525 101.585 20.0025 100.789 20.8313C100.327 21.2685 99.7781 21.6058 99.178 21.8219C98.5779 22.0381 97.9393 22.1283 97.3024 22.0871C94.1442 22.0871 92.6219 20.4232 92.6219 16.8504V8.68757C92.6219 7.79163 92.2638 6.93239 91.6265 6.29887C90.9892 5.66534 90.1249 5.30943 89.2236 5.30943H86.5391V17.0073C86.5391 20.1908 87.4992 22.6585 89.3878 24.4104C91.2765 26.1622 93.9231 27.0036 97.2772 27.0036C100.631 27.0036 103.278 26.1308 105.154 24.4104C107.03 22.6899 108.015 20.1908 108.015 17.0073V5.29688H105.628Z" fill="#EC5A3D"/>
<path fill-rule="evenodd" clip-rule="evenodd" d="M82.2882 17.4435C83.0992 16.1935 83.513 14.7297 83.4757 13.2428C83.5122 11.7565 83.1056 10.2928 82.3071 9.03578C81.496 7.81738 80.3461 6.85968 78.9973 6.27926C77.4355 5.61641 75.7492 5.29314 74.0514 5.33112H62.1953V26.7553H64.8104C65.648 26.7553 66.4513 26.4245 67.0436 25.8358C67.6359 25.247 67.9686 24.4484 67.9686 23.6158V21.0665H74.0388L77.0328 25.3614C77.3328 25.7915 77.7331 26.1429 78.1995 26.3857C78.6659 26.6284 79.1846 26.7553 79.7111 26.7553H84.3347L79.5152 19.8923C80.6349 19.325 81.5896 18.4819 82.2882 17.4435ZM76.7233 15.4907C75.8693 16.0936 74.8309 16.3822 73.7861 16.3069H67.9497V10.1848H73.7861C74.829 10.1091 75.8663 10.393 76.7233 10.9886C77.0445 11.2663 77.2962 11.6147 77.4585 12.0059C77.6208 12.3972 77.6891 12.8207 77.6582 13.2428C77.6852 13.6635 77.6151 14.0848 77.453 14.4745C77.291 14.8641 77.0414 15.2117 76.7233 15.4907Z" fill="#EC5A3D"/>
<path d="M24.2049 19.0575L28.0833 7.32823C28.2701 6.73554 28.6421 6.21749 29.1453 5.84937C29.6485 5.48125 30.2567 5.28224 30.8815 5.28125H34.3556L28.0391 24.4889C27.8073 25.2164 27.3489 25.8517 26.7301 26.3032C26.1113 26.7547 25.3641 26.9989 24.5966 27.0006H24.167C23.3467 26.9995 22.5469 26.7451 21.8782 26.2727C21.2094 25.8003 20.7048 25.1331 20.434 24.3633L17.3894 15.6982L13.8964 24.6522C13.6247 25.341 13.1514 25.933 12.5377 26.3516C11.924 26.7703 11.1981 26.9963 10.4539 27.0006H10.1443C9.27894 27.0022 8.43521 26.7315 7.73401 26.2274C7.0328 25.7232 6.51008 25.0114 6.24073 24.1938L0 5.31265H3.41093C4.16371 5.31116 4.89734 5.54845 5.50511 5.99C6.11288 6.43155 6.56309 7.05433 6.79027 7.76776L10.4033 18.9571L14.1301 9.07381C14.3821 8.41824 14.8301 7.85514 15.4137 7.4603C15.9974 7.06546 16.6887 6.85783 17.3946 6.86535C18.1006 6.87288 18.7873 7.09519 19.3623 7.50238C19.9373 7.90957 20.373 8.48209 20.6108 9.14288L24.2049 19.0575Z" fill="#EC5A3D"/>
</svg>
