<svg width="68" height="68" viewBox="0 0 68 68" fill="none" xmlns="http://www.w3.org/2000/svg">
<path d="M15.5891 19.3929L22.1366 38.8343L28.2043 22.4007C28.6057 21.3054 29.3413 20.3565 30.3121 19.6816C31.2828 19.0066 32.4421 18.6381 33.6339 18.6257C34.8257 18.6132 35.9928 18.9573 36.9782 19.6118C37.9635 20.2663 38.7198 21.1996 39.1452 22.2862L45.4368 38.6678L51.5365 20.1214C51.92 18.9389 52.6801 17.9066 53.7061 17.1748C54.7322 16.4429 55.9707 16.0496 57.2416 16.052H63L52.4642 47.3478C52.0095 48.7029 51.127 49.8827 49.9433 50.7184C48.7595 51.5541 47.3351 52.0027 45.8741 52H45.3515C44.095 51.993 42.8695 51.6183 41.8335 50.9244C40.7974 50.2305 39.9985 49.2493 39.5398 48.1075L33.6428 33.2663L28.5029 47.6288C28.0456 48.9047 27.1937 50.0106 26.0647 50.7936C24.9358 51.5766 23.5856 51.9982 22.2006 52H21.4755C20.1796 51.9972 18.9182 51.5924 17.8735 50.8441C16.8288 50.0958 16.055 49.0427 15.6637 47.8369L5 16H10.865C11.9198 16.0016 12.9466 16.3315 13.7962 16.9417C14.6457 17.5518 15.2738 18.4105 15.5891 19.3929Z" fill="#EC5A3D"/>
</svg>
