<svg width="112" height="56" viewBox="0 0 112 56" fill="none" xmlns="http://www.w3.org/2000/svg">
<path d="M88.3111 56H22.4461C16.493 56 10.7838 53.61 6.57431 49.3558C2.36485 45.1016 0 39.3317 0 33.3154L0 2.59311C0 1.90537 0.270329 1.24581 0.751518 0.759504C1.23271 0.273202 1.88534 0 2.56584 0L88.2259 0C91.3484 -7.01087e-08 94.4403 0.621638 97.325 1.82941C100.21 3.03719 102.831 4.80744 105.038 7.03907C107.246 9.2707 108.997 11.92 110.192 14.8356C111.386 17.7513 112.001 20.8762 112 24.0318V32.0593C112 38.4088 109.504 44.4982 105.062 48.9879C100.619 53.4777 94.5938 56 88.3111 56V56Z" fill="#DD593E"/>
<path d="M53.3572 18.4339C53.2096 18.8116 52.9671 19.1439 52.6536 19.398C52.4623 19.5555 52.2238 19.643 51.977 19.6461H48.6094L51.7164 15.25L52.0873 15.4171C52.4589 15.5716 52.7842 15.8214 53.0311 16.1418C53.278 16.4622 53.438 16.8422 53.4951 17.2441C53.5523 17.6461 53.5048 18.0562 53.3572 18.4339Z" fill="white"/>
<path d="M56.8886 19.4844C56.1274 19.4857 55.3978 19.7919 54.8596 20.3358C54.3213 20.8798 54.0184 21.6172 54.0171 22.3864V28.7223C54.0171 30.1809 53.7013 31.2547 53.0799 31.9232C52.7165 32.275 52.2848 32.5468 51.812 32.7211C51.3393 32.8955 50.8359 32.9687 50.3337 32.9361C47.828 32.9361 46.6503 31.5991 46.6503 28.7426V22.194C46.649 21.4758 46.3661 20.7873 45.8635 20.2795C45.361 19.7716 44.6798 19.4857 43.9692 19.4844H41.8594V28.8692C41.8594 31.4015 42.6161 33.4274 44.1045 34.7949C45.5929 36.1623 47.6726 36.8714 50.3086 36.8714C52.9446 36.8714 55.0294 36.1724 56.5127 34.7949C57.9961 33.4173 58.7528 31.4015 58.7528 28.8692V19.4844H56.8886Z" fill="white"/>
<path d="M95.8105 19.4844C95.0493 19.4857 94.3197 19.7919 93.7814 20.3358C93.2432 20.8798 92.9403 21.6172 92.9389 22.3864V28.7223C92.9389 30.1809 92.6232 31.2547 92.0018 31.9232C91.6388 32.2756 91.2071 32.5476 90.7342 32.722C90.2614 32.8964 89.7578 32.9693 89.2555 32.9361C86.7498 32.9361 85.5722 31.5991 85.5722 28.7426V22.194C85.5722 21.4762 85.2904 20.7878 84.7887 20.2798C84.2869 19.7718 83.6063 19.4857 82.8961 19.4844H80.7812V28.8692C80.7812 31.4015 81.538 33.4274 83.0264 34.7949C84.5147 36.1623 86.5945 36.8714 89.2305 36.8714C91.8665 36.8714 93.9512 36.1724 95.4346 34.7949C96.918 33.4173 97.6797 31.4015 97.6797 28.8692V19.4844H95.8105Z" fill="white"/>
<path fill-rule="evenodd" clip-rule="evenodd" d="M75.2354 31.1761C76.1231 30.7245 76.8807 30.0494 77.4354 29.2161C78.0741 28.208 78.3988 27.0295 78.3675 25.8329C78.4102 24.6544 78.0976 23.4906 77.4712 22.4957C76.8447 21.5008 75.934 20.7218 74.8595 20.2617C73.6294 19.7331 72.3022 19.4741 70.9657 19.502H61.6094V36.6713H63.6741C63.9989 36.6719 64.3208 36.6078 64.6211 36.4826C64.9214 36.3575 65.1944 36.1736 65.4243 35.9417C65.6543 35.7098 65.8367 35.4343 65.9612 35.1311C66.0856 34.8278 66.1497 34.5027 66.1497 34.1744V32.1181H70.9306L73.286 35.552C73.5209 35.898 73.8359 36.1808 74.2036 36.3759C74.5713 36.5709 74.9805 36.6723 75.3958 36.6713H79.034L75.2354 31.1761ZM73.7871 25.8329C73.8095 26.1696 73.7547 26.5071 73.6269 26.819C73.4991 27.1308 73.3018 27.4086 73.0504 27.6308C72.3802 28.1162 71.5623 28.3475 70.7402 28.2842H66.1497V23.4018H70.7452C71.5664 23.3404 72.3831 23.5696 73.0554 24.0501C73.3045 24.2707 73.5 24.5462 73.6268 24.8553C73.7537 25.1644 73.8085 25.4989 73.7871 25.8329Z" fill="white"/>
<path d="M35.597 19.9518C35.9922 19.6624 36.468 19.507 36.956 19.5078H39.6922L34.7159 34.8841C34.5288 35.4617 34.1659 35.9647 33.679 36.3213C33.192 36.6779 32.606 36.8697 32.0047 36.8695H31.6689C31.0226 36.8685 30.3925 36.6648 29.8656 36.2865C29.3387 35.9082 28.941 35.374 28.7273 34.7575L26.3318 27.8088L23.5705 34.9905C23.3558 35.5425 22.9822 36.0166 22.498 36.3516C22.0137 36.6866 21.4411 36.867 20.8543 36.8695H20.6088C19.9276 36.8696 19.2638 36.6523 18.7121 36.2484C18.1604 35.8446 17.7491 35.2749 17.5368 34.6208L12.6406 19.5078H15.3217C15.9138 19.5064 16.4909 19.6956 16.9694 20.0481C17.4479 20.4005 17.8028 20.8978 17.9828 21.4678L20.8293 30.4272L23.791 22.5416C23.9842 22.026 24.3266 21.5811 24.7735 21.2649C25.2204 20.9487 25.7512 20.7759 26.2967 20.7689C26.8559 20.7692 27.4017 20.942 27.8611 21.2642C28.3205 21.5864 28.6716 22.0426 28.8676 22.5719L31.699 30.5133L34.756 21.1184C34.9074 20.6495 35.2018 20.2411 35.597 19.9518Z" fill="white"/>
</svg>
